<svg width="357" height="357" viewBox="0 0 357 357" fill="none" xmlns="http://www.w3.org/2000/svg">
<path fill-rule="evenodd" clip-rule="evenodd" d="M212.57 5.73794C210.709 8.89306 207.641 21.1238 205.751 32.9179C203.861 44.7119 201.775 56.3215 201.115 58.7142C199.934 62.9969 199.964 63.0063 202.974 59.2996C213.455 46.3949 224.537 19.7458 224.537 7.4454C224.537 0.946911 223.992 0 220.245 0C217.453 0 214.77 2.00677 212.57 5.73794ZM217.117 25.0282C214.965 31.4533 212.303 37.98 211.202 39.5331C207.416 44.8663 211.164 18.8949 215.506 9.70819L219.648 0.941264L220.339 7.14419C220.719 10.5553 219.268 18.6031 217.117 25.0282ZM156.186 10.4292C154.275 15.4198 154.844 21.6359 157.55 25.3445C159.835 28.4751 160.021 28.1852 159.416 22.4096C158.867 17.1762 159.081 16.6924 160.581 19.7665C162.061 22.8049 162.336 22.1046 162.003 16.1464C161.575 8.45067 158.209 5.14306 156.186 10.4292ZM119.315 24.1152C119.315 27.9875 127.415 57.6185 128.907 59.2055C131.936 62.4265 130.726 54.6404 125.67 38.396C121.224 24.1095 119.315 19.8193 119.315 24.1152ZM65.7645 30.1204C64.1486 32.739 66.347 35.768 69.8626 35.768C72.262 35.768 72.371 35.2503 70.462 32.9442C68.8122 30.9544 68.754 30.1204 70.259 30.1204C71.4352 30.1204 74.0714 32.8727 76.1195 36.2387C78.1676 39.6046 79.8455 41.0636 79.8492 39.4823C79.868 31.8881 69.0922 24.727 65.7645 30.1204ZM276.315 34.3053C273.142 38.8422 272.462 43.2981 274.942 43.2981C276.569 43.2981 283.158 36.5003 285.434 32.4736C287.848 28.2003 279.395 29.8983 276.315 34.3053ZM282.785 32.6524C282.785 33.0101 280.883 34.9152 278.557 36.8881L274.329 40.4743L277.909 36.2387C281.272 32.259 282.785 31.1464 282.785 32.6524ZM34.7673 66.8222C32.7794 69.2224 32.9767 70.4046 35.9116 73.6539C40.3572 78.5786 50.5976 83.8384 59.1882 85.6098C62.8052 86.3553 67.7412 88.2209 70.1557 89.7551C77.8049 94.6158 76.8072 90.8715 68.3162 82.8576C53.5663 68.9363 38.8447 61.9013 34.7673 66.8222ZM47.5198 71.472C51.3529 73.5071 56.6046 76.9483 59.1882 79.1208L63.8856 83.0665L59.1882 81.8034C52.1458 79.9095 39.8405 72.8011 38.9706 70.1242C37.9296 66.922 39.3783 67.1498 47.5198 71.472ZM229.676 71.7732C226.816 73.9099 223.543 77.483 222.398 79.7156C221.106 82.2382 223.248 80.9581 228.065 76.3308C235.066 69.6046 236.737 67.6543 235.341 67.8312C235.081 67.8632 232.534 69.6385 229.676 71.7732ZM315.627 76.4062C308.427 83.62 307.978 87.1893 314.156 88.1061C318.656 88.7744 327.88 78.8083 327.88 73.2736C327.88 67.7183 323.071 68.9476 315.627 76.4062ZM266.798 78.6426C262.657 82.4999 253.435 90.9581 246.306 97.4415C239.178 103.923 233.858 109.74 234.484 110.369C235.831 111.717 268.382 82.1987 272.512 75.8847C276.304 70.0846 275.648 70.4009 266.798 78.6426ZM318.919 81.3835C315.646 84.661 312.403 86.777 311.711 86.0842C311.02 85.3914 313.222 82.2326 316.606 79.0662C319.99 75.8997 323.233 73.7838 323.814 74.3655C324.394 74.9453 322.19 78.1042 318.919 81.3835ZM162.531 79.0662C162.531 80.1015 163.326 80.9487 164.299 80.9487C165.272 80.9487 166.59 80.1015 167.228 79.0662C167.867 78.0308 167.071 77.1836 165.46 77.1836C163.85 77.1836 162.531 78.0308 162.531 79.0662ZM107.102 100.774C110.202 103.319 113.537 105.406 114.512 105.412C115.489 105.418 113.423 103.304 109.92 100.715C101.749 94.6742 99.7268 94.7175 107.102 100.774ZM34.4103 121.768C35.7651 122.312 37.3866 122.244 38.0104 121.619C38.6342 120.994 37.5256 120.55 35.5452 120.63C33.3562 120.721 32.9109 121.167 34.4103 121.768ZM27.2459 125.188C27.2459 126.741 28.4878 128.012 30.006 128.012C31.6858 128.012 32.3416 126.909 31.684 125.188C31.0883 123.635 29.8463 122.364 28.9238 122.364C28.0012 122.364 27.2459 123.635 27.2459 125.188ZM265.802 127.935C262.225 130.999 260.143 133.518 261.176 133.531C262.21 133.547 266.015 131.062 269.632 128.012C273.249 124.962 275.331 122.443 274.258 122.415C273.185 122.387 269.38 124.872 265.802 127.935ZM327.88 127.771C316.531 131.417 297.957 140.293 294.998 143.482C293.675 144.909 294.231 145.064 296.877 144.008C298.944 143.181 306.553 141.766 313.787 140.862C349.529 136.397 360.728 132.701 355.959 126.944C352.947 123.307 340.643 123.669 327.88 127.771ZM347.062 131.026C343.661 132.515 335.628 134.149 329.212 134.657L317.545 135.582L326.94 131.943C332.107 129.941 340.14 128.307 344.79 128.311L353.246 128.319L347.062 131.026ZM76.0988 137.425C76.0988 138.46 76.8936 139.307 77.8669 139.307C78.8402 139.307 80.1574 138.46 80.7962 137.425C81.4351 136.389 80.6384 135.542 79.0281 135.542C77.4179 135.542 76.0988 136.389 76.0988 137.425ZM6.57728 154.367C8.12742 155.371 17.851 156.191 28.1853 156.191C41.0017 156.191 46.0787 155.612 44.1565 154.367C42.6064 153.364 32.8827 152.543 22.5484 152.543C9.73206 152.543 4.6551 153.123 6.57728 154.367ZM324.219 171.21C322.091 172.558 322.62 173.215 326.656 174.23C332.575 175.719 335.681 173.833 331.583 171.237C328.16 169.066 327.603 169.064 324.219 171.21ZM279.889 175.201C279.207 176.304 279.102 177.66 279.652 178.213C281 179.561 284.663 177.185 284.663 174.964C284.663 172.558 281.42 172.718 279.889 175.201ZM62.9461 184.488C58.7072 185.847 58.8913 185.992 64.8251 185.96C68.4421 185.941 73.938 185.278 77.0383 184.488C82.4009 183.121 82.3088 183.049 75.1594 183.016C71.0256 182.997 65.5297 183.659 62.9461 184.488ZM81.11 210.216C80.4204 210.905 79.8831 212.812 79.9131 214.452C79.9601 216.899 80.3284 216.818 81.965 213.996C83.9886 210.51 83.4024 207.92 81.11 210.216ZM294.058 210.843C294.058 213.036 325.852 213.036 334.456 210.843C338.049 209.926 331.748 209.326 317.076 209.183C302.835 209.045 294.058 209.678 294.058 210.843ZM30.0643 214.561C16.8571 215.822 2.22373 221.63 0.510117 226.293C-1.09264 230.653 1.15084 233.433 6.2635 233.424C11.7745 233.416 44.7296 218.513 45.7066 215.589C46.5165 213.164 45.4473 213.095 30.0643 214.561ZM29.5814 220.243C20.925 225.531 10.5494 229.668 5.94595 229.668C2.31956 229.668 2.25004 229.431 5.06284 226.613C8.43557 223.234 26.0527 216.645 31.9433 216.558C34.8782 216.517 34.3596 217.325 29.5814 220.243ZM262.116 222.987C262.116 224.531 286.715 237.652 287.721 236.645C288.262 236.103 283.275 232.616 276.638 228.898C264.964 222.357 262.116 221.199 262.116 222.987ZM247.084 248.494C247.084 249.529 248.353 250.376 249.903 250.376C251.453 250.376 252.721 249.529 252.721 248.494C252.721 247.458 251.453 246.611 249.903 246.611C248.353 246.611 247.084 247.458 247.084 248.494ZM28.3826 261.464C25.4345 264.548 23.9915 267.409 25.0531 268.066C27.0824 269.322 38.5196 260.551 38.5196 257.739C38.5196 254.297 33.4577 256.157 28.3826 261.464ZM74.0602 270.613C66.27 278.637 58.6809 286.863 57.1946 288.895C54.6693 292.343 54.8628 292.325 60.1277 288.62C71.5687 280.568 93.1109 256.024 88.7386 256.024C88.4549 256.024 81.8503 262.59 74.0602 270.613ZM220.839 262.724C220.805 263.819 222.021 266.361 223.537 268.371C225.055 270.38 226.324 271.129 226.356 270.032C226.389 268.936 225.174 266.395 223.657 264.384C222.139 262.375 220.871 261.626 220.839 262.724ZM121.32 268.127C118.962 270.64 117.335 273.441 117.705 274.348C118.073 275.258 120.784 273.2 123.727 269.777C129.863 262.643 127.793 261.221 121.32 268.127ZM293.891 265.579C291.877 266.858 292.256 267.268 295.467 267.291C297.794 267.306 299.695 268.223 299.695 269.328C299.695 270.536 298.01 270.828 295.467 270.058C292.224 269.077 291.736 269.303 293.372 271.031C296.161 273.979 304.393 272.773 304.393 269.418C304.393 266.016 297.292 263.422 293.891 265.579ZM162.531 279.666C162.531 281.28 163.39 282.069 164.44 281.419C165.49 280.768 165.864 279.448 165.269 278.484C163.658 275.873 162.531 276.359 162.531 279.666ZM246.216 286.556C248.326 296.321 254.649 308.518 261.216 315.495C267.272 321.929 275.269 324.134 275.269 319.371C275.269 315.922 265.442 302.394 254.166 290.322L244.88 280.378L246.216 286.556ZM264.395 308.396C267.475 312.869 269.602 316.922 269.123 317.402C267.845 318.682 257.048 305.894 253.439 298.827L250.327 292.733L254.563 296.498C256.891 298.569 261.316 303.923 264.395 308.396ZM192.049 298.027C191.443 299.614 192.581 309.659 194.58 320.353L198.216 339.796L197.173 320.133C196.117 300.231 194.267 292.242 192.049 298.027ZM116.947 315.914C104.063 332.842 98.8136 350.468 105.102 355.698C112.241 361.634 122.081 346.475 124.076 326.47C124.689 320.338 125.576 313.418 126.045 311.088C127.379 304.493 124.461 306.041 116.947 315.914ZM79.8755 316.686C75.1049 324.544 78.2559 328.908 83.7951 322.116C88.0565 316.892 87.1039 314.521 82.2825 318.349C79.1352 320.85 79.1352 320.732 82.2806 315.794C84.0957 312.948 85.1254 310.617 84.5692 310.617C84.0149 310.617 81.9011 313.349 79.8755 316.686ZM118.334 336.524C113.577 353.029 106.162 359.663 106.162 347.415C106.162 340.082 108.573 333.766 115.497 322.957C120.241 315.553 120.256 315.547 120.852 320.626C121.179 323.43 120.046 330.583 118.334 336.524ZM228.689 328.501C229.018 330.572 230.531 332.266 232.053 332.266C233.575 332.266 235.087 330.572 235.416 328.501C235.91 325.384 235.671 325.222 234.033 327.56C232.272 330.069 231.833 330.069 230.072 327.56C228.434 325.222 228.195 325.384 228.689 328.501ZM162.683 336.688C160.218 341.302 160.135 342.62 162.311 342.62C164.023 342.62 166.699 334.872 165.427 333.599C165.036 333.205 163.801 334.597 162.683 336.688Z" fill="white"/>
<path d="M141.3 143.4C140.9 143.773 140.553 144.04 140.26 144.2C139.967 144.36 139.673 144.373 139.38 144.24C139.113 144.107 138.927 144 138.82 143.92C138.713 143.84 138.5 143.587 138.18 143.16C137.887 142.707 137.7 142.427 137.62 142.32C136.26 140.64 134.5 139.8 132.34 139.8C130.207 139.8 128.193 140.493 126.3 141.88C124.433 143.24 122.927 145.04 121.78 147.28C120.633 149.52 120.06 151.853 120.06 154.28C120.06 157.267 121.047 159.707 123.02 161.6C125.02 163.493 127.66 164.44 130.94 164.44C134.247 164.44 137.14 163.52 139.62 161.68C140.02 161.387 140.447 160.96 140.9 160.4C141.38 159.84 141.78 159.44 142.1 159.2C142.447 158.96 142.767 158.853 143.06 158.88C143.38 158.907 143.82 159 144.38 159.16C143.233 161.4 141.313 163.147 138.62 164.4C135.953 165.627 132.927 166.24 129.54 166.24C126.153 166.24 123.287 165.293 120.94 163.4C118.593 161.507 117.42 158.76 117.42 155.16C117.42 152.92 117.793 150.76 118.54 148.68C119.287 146.573 120.313 144.72 121.62 143.12C122.953 141.493 124.607 140.2 126.58 139.24C128.58 138.28 130.74 137.8 133.06 137.8C137.193 137.8 139.94 139.667 141.3 143.4ZM151.391 138.76L151.191 156.48C151.191 159.227 151.271 161.827 151.431 164.28C153.031 164.387 154.485 164.44 155.791 164.44L164.191 164.28C165.498 164.28 166.151 164.653 166.151 165.4C166.151 166.28 163.351 166.72 157.751 166.72C156.391 166.72 154.645 166.653 152.511 166.52C150.378 166.387 149.085 166.173 148.631 165.88C148.498 163.053 148.431 158.44 148.431 152.04L148.631 137.96C149.325 137.427 149.885 137.16 150.311 137.16C151.031 137.16 151.391 137.693 151.391 138.76ZM172.958 137.84C172.691 149.893 172.544 159.307 172.518 166.08C172.118 166.507 171.758 166.72 171.438 166.72C171.144 166.72 170.891 166.653 170.678 166.52C170.064 166.12 169.758 165.373 169.758 164.28C169.811 151.453 169.904 143.947 170.038 141.76C170.171 139.573 170.371 138.307 170.638 137.96C170.904 137.613 171.224 137.44 171.598 137.44C171.971 137.44 172.424 137.573 172.958 137.84ZM202.003 143.4C201.603 143.773 201.256 144.04 200.963 144.2C200.67 144.36 200.376 144.373 200.083 144.24C199.816 144.107 199.63 144 199.523 143.92C199.416 143.84 199.203 143.587 198.883 143.16C198.59 142.707 198.403 142.427 198.323 142.32C196.963 140.64 195.203 139.8 193.043 139.8C190.91 139.8 188.896 140.493 187.003 141.88C185.136 143.24 183.63 145.04 182.483 147.28C181.336 149.52 180.763 151.853 180.763 154.28C180.763 157.267 181.75 159.707 183.723 161.6C185.723 163.493 188.363 164.44 191.643 164.44C194.95 164.44 197.843 163.52 200.323 161.68C200.723 161.387 201.15 160.96 201.603 160.4C202.083 159.84 202.483 159.44 202.803 159.2C203.15 158.96 203.47 158.853 203.763 158.88C204.083 158.907 204.523 159 205.083 159.16C203.936 161.4 202.016 163.147 199.323 164.4C196.656 165.627 193.63 166.24 190.243 166.24C186.856 166.24 183.99 165.293 181.643 163.4C179.296 161.507 178.123 158.76 178.123 155.16C178.123 152.92 178.496 150.76 179.243 148.68C179.99 146.573 181.016 144.72 182.323 143.12C183.656 141.493 185.31 140.2 187.283 139.24C189.283 138.28 191.443 137.8 193.763 137.8C197.896 137.8 200.643 139.667 202.003 143.4ZM212.054 137.76L212.174 147.16C212.174 148.493 212.134 149.787 212.054 151.04C214.401 150.107 216.481 149 218.294 147.72C220.134 146.413 221.548 145.187 222.534 144.04C223.521 142.867 224.374 141.773 225.094 140.76C225.841 139.72 226.481 138.893 227.014 138.28C227.574 137.667 228.094 137.36 228.574 137.36C229.054 137.36 229.521 137.533 229.974 137.88C228.881 140.627 227.334 143 225.334 145C223.361 146.973 220.854 148.987 217.814 151.04C219.228 151.76 220.561 152.787 221.814 154.12C223.094 155.427 224.148 156.72 224.974 158C227.294 161.547 229.468 164.08 231.494 165.6C231.041 166.293 230.374 166.64 229.494 166.64C228.641 166.64 227.601 165.96 226.374 164.6C225.148 163.213 224.014 161.68 222.974 160C221.934 158.32 220.748 156.693 219.414 155.12C218.081 153.52 216.854 152.56 215.734 152.24C215.521 152.32 214.974 152.573 214.094 153C213.241 153.4 212.561 153.68 212.054 153.84C212.054 158.347 211.988 162.133 211.854 165.2C211.374 165.68 210.508 165.92 209.254 165.92C209.201 165.12 209.174 163.293 209.174 160.44L209.334 138.56C209.654 137.973 210.254 137.68 211.134 137.68C211.428 137.68 211.734 137.707 212.054 137.76ZM122.755 208.6C122.755 209.293 123.089 209.867 123.755 210.32C124.422 210.773 125.129 211 125.875 211C126.622 211 127.329 210.813 127.995 210.44C128.662 210.067 129.275 209.88 129.835 209.88C130.422 209.88 130.715 210.053 130.715 210.4C130.715 210.907 130.182 211.4 129.115 211.88C128.049 212.333 127.062 212.613 126.155 212.72C126.182 213.333 126.289 215.027 126.475 217.8C126.449 218.067 126.222 218.293 125.795 218.48C125.395 218.64 125.102 218.72 124.915 218.72C124.329 218.72 124.009 218.64 123.955 218.48C123.715 215.547 123.595 213.56 123.595 212.52C122.555 212.253 121.702 211.8 121.035 211.16C120.395 210.493 120.075 209.76 120.075 208.96C120.075 207.6 120.849 206.387 122.395 205.32C121.489 204.867 121.035 204.16 121.035 203.2C121.035 201.76 121.742 200.653 123.155 199.88C122.915 199.053 122.795 198.187 122.795 197.28C122.795 196.347 122.995 195.36 123.395 194.32C123.449 194.187 123.689 194.067 124.115 193.96C124.542 193.853 124.929 193.8 125.275 193.8C125.622 193.8 125.822 193.813 125.875 193.84C125.502 194.853 125.315 195.8 125.315 196.68C125.315 197.56 125.435 198.373 125.675 199.12C127.115 199.12 127.835 199.347 127.835 199.8C127.835 200.067 127.675 200.333 127.355 200.6C127.035 200.84 126.689 200.96 126.315 200.96C125.969 200.96 125.675 200.973 125.435 201C125.195 201.027 124.915 201.093 124.595 201.2C123.982 201.413 123.675 201.92 123.675 202.72C123.675 203.147 123.835 203.48 124.155 203.72C124.502 203.933 124.875 204.067 125.275 204.12C126.342 204.227 126.875 204.413 126.875 204.68C126.875 205.107 126.649 205.427 126.195 205.64C125.769 205.827 125.449 205.92 125.235 205.92C125.022 205.92 124.849 205.907 124.715 205.88C124.129 205.96 123.649 206.253 123.275 206.76C122.929 207.267 122.755 207.88 122.755 208.6ZM144.254 206.12C144.254 201.96 144.081 198.293 143.734 195.12C143.734 194.293 144.081 193.573 144.774 192.96C145.468 192.347 146.388 191.88 147.534 191.56C149.828 190.973 152.348 190.68 155.094 190.68C158.641 190.68 161.428 191.467 163.454 193.04C165.508 194.587 166.534 196.973 166.534 200.2C166.534 203.427 165.228 206.013 162.614 207.96C160.001 209.907 156.814 210.88 153.054 210.88C151.134 210.88 149.121 210.48 147.014 209.68C146.881 210.96 146.814 212.693 146.814 214.88L146.854 216.84C146.854 217.48 146.841 218.147 146.814 218.84C146.681 219.027 146.534 219.16 146.374 219.24C146.214 219.32 146.094 219.373 146.014 219.4C145.961 219.453 145.868 219.493 145.734 219.52C145.601 219.547 145.508 219.56 145.454 219.56C145.294 219.613 145.108 219.64 144.894 219.64H144.214C144.161 217.64 144.134 215.84 144.134 214.24L144.254 206.12ZM146.934 206.8C148.881 208.107 151.214 208.76 153.934 208.76C156.654 208.733 158.948 207.893 160.814 206.24C162.681 204.56 163.614 202.507 163.614 200.08C163.614 197.653 162.654 195.84 160.734 194.64C158.814 193.44 156.508 192.84 153.814 192.84C151.148 192.84 148.788 193.453 146.734 194.68C146.868 196.413 146.934 200.453 146.934 206.8ZM171.53 191.32C172.384 190.76 173.13 190.6 173.77 190.84C174.09 190.947 174.21 191.24 174.13 191.72C173.33 197 172.93 200.64 172.93 202.64C172.93 204.613 173.037 206.333 173.25 207.8C173.49 209.24 173.877 210.76 174.41 212.36C174.97 213.933 175.837 215.213 177.01 216.2C178.184 217.16 179.61 217.64 181.29 217.64C183.637 217.64 185.69 216.213 187.45 213.36C189.237 210.48 190.13 207.027 190.13 203C190.13 198.947 189.184 194.987 187.29 191.12C187.85 190.64 188.344 190.4 188.77 190.4C189.224 190.4 189.57 190.44 189.81 190.52C191.944 193.587 193.01 197.573 193.01 202.48C193.01 206.507 191.97 210.36 189.89 214.04C188.877 215.773 187.544 217.2 185.89 218.32C184.237 219.413 182.504 219.96 180.69 219.96C178.904 219.96 177.384 219.587 176.13 218.84C174.904 218.067 173.93 217.107 173.21 215.96C172.517 214.787 171.944 213.427 171.49 211.88C170.717 209.213 170.33 206.293 170.33 203.12C170.33 198.427 170.73 194.493 171.53 191.32ZM201.352 191.76L201.152 209.48C201.152 212.227 201.232 214.827 201.392 217.28C202.992 217.387 204.446 217.44 205.752 217.44L214.152 217.28C215.459 217.28 216.112 217.653 216.112 218.4C216.112 219.28 213.312 219.72 207.712 219.72C206.352 219.72 204.606 219.653 202.472 219.52C200.339 219.387 199.046 219.173 198.592 218.88C198.459 216.053 198.392 211.44 198.392 205.04L198.592 190.96C199.286 190.427 199.846 190.16 200.272 190.16C200.992 190.16 201.352 190.693 201.352 191.76ZM222.758 191.76L222.558 209.48C222.558 212.227 222.638 214.827 222.798 217.28C224.398 217.387 225.852 217.44 227.158 217.44L235.558 217.28C236.865 217.28 237.518 217.653 237.518 218.4C237.518 219.28 234.718 219.72 229.118 219.72C227.758 219.72 226.012 219.653 223.878 219.52C221.745 219.387 220.452 219.173 219.998 218.88C219.865 216.053 219.798 211.44 219.798 205.04L219.998 190.96C220.692 190.427 221.252 190.16 221.678 190.16C222.398 190.16 222.758 190.693 222.758 191.76Z" fill="white"/>
</svg>
